<svg width="562" height="488" viewBox="0 0 562 488" fill="none" xmlns="http://www.w3.org/2000/svg">
<line x1="92.0658" y1="210.504" x2="220.066" y2="227.504" stroke="black"/>
<line x1="324.675" y1="203.62" x2="421.675" y2="120.62" stroke="black"/>
<path d="M253 271C246.382 271 240.728 268.605 236.039 263.814C231.346 259.023 229 253.168 229 246.248C229 240.317 230.709 235.032 234.127 230.394C237.545 225.755 242.018 222.79 247.545 221.497C249.364 214.501 253 208.836 258.455 204.502C263.909 200.167 270.091 198 277 198C285.509 198 292.727 201.098 298.652 207.294C304.581 213.493 307.545 221.041 307.545 229.938C312.564 230.546 316.728 232.807 320.039 236.722C323.346 240.64 325 245.222 325 250.469C325 256.172 323.092 261.02 319.275 265.014C315.455 269.005 310.818 271 305.364 271H253ZM253 261.875H305.364C308.418 261.875 311 260.772 313.109 258.567C315.218 256.362 316.273 253.662 316.273 250.469C316.273 247.275 315.218 244.576 313.109 242.37C311 240.165 308.418 239.062 305.364 239.062H298.818V229.938C298.818 223.626 296.692 218.245 292.439 213.795C288.183 209.348 283.036 207.125 277 207.125C270.964 207.125 265.819 209.348 261.566 213.795C257.31 218.245 255.182 223.626 255.182 229.938H253C248.782 229.938 245.182 231.496 242.2 234.614C239.218 237.732 237.727 241.496 237.727 245.906C237.727 250.317 239.218 254.081 242.2 257.198C245.182 260.316 248.782 261.875 253 261.875Z" fill="black"/>
<line x1="226.408" y1="284.289" x2="165.408" y2="370.289" stroke="black"/>
<line x1="338.071" y1="246.505" x2="464.071" y2="264.505" stroke="black"/>
<line x1="220.452" y1="99.7871" x2="260.452" y2="184.787" stroke="black"/>
<g clip-path="url(#clip0_7_88)">
<path d="M552.6 243.6L541.44 232.44C540.16 231.16 538 232.04 538 233.84V241H482C479.8 241 478 242.8 478 245C478 247.2 479.8 249 482 249H538V256.16C538 257.96 540.16 258.84 541.4 257.56L552.56 246.4C553.36 245.64 553.36 244.36 552.6 243.6Z" fill="#0059FF"/>
<path d="M546 273H490V265.84C490 264.04 487.84 263.16 486.6 264.44L475.44 275.6C474.64 276.36 474.64 277.64 475.4 278.4L486.56 289.56C487.84 290.84 490 289.96 490 288.16V281H546C548.2 281 550 279.2 550 277C550 274.8 548.2 273 546 273Z" fill="#0059FF"/>
</g>
<g clip-path="url(#clip1_7_88)">
<path d="M510 67C510 71.4 506.4 75 502 75C501.28 75 500.6 74.92 499.96 74.72L485.72 88.92C485.92 89.56 486 90.28 486 91C486 95.4 482.4 99 478 99C473.6 99 470 95.4 470 91C470 90.28 470.08 89.56 470.28 88.92L460.08 78.72C459.44 78.92 458.72 79 458 79C457.28 79 456.56 78.92 455.92 78.72L437.72 96.96C437.92 97.6 438 98.28 438 99C438 103.4 434.4 107 430 107C425.6 107 422 103.4 422 99C422 94.6 425.6 91 430 91C430.72 91 431.4 91.08 432.04 91.28L450.28 73.08C450.08 72.44 450 71.72 450 71C450 66.6 453.6 63 458 63C462.4 63 466 66.6 466 71C466 71.72 465.92 72.44 465.72 73.08L475.92 83.28C476.56 83.08 477.28 83 478 83C478.72 83 479.44 83.08 480.08 83.28L494.28 69.04C494.08 68.4 494 67.72 494 67C494 62.6 497.6 59 502 59C506.4 59 510 62.6 510 67ZM510 67C510 71.4 506.4 75 502 75C501.28 75 500.6 74.92 499.96 74.72L485.72 88.92C485.92 89.56 486 90.28 486 91C486 95.4 482.4 99 478 99C473.6 99 470 95.4 470 91C470 90.28 470.08 89.56 470.28 88.92L460.08 78.72C459.44 78.92 458.72 79 458 79C457.28 79 456.56 78.92 455.92 78.72L437.72 96.96C437.92 97.6 438 98.28 438 99C438 103.4 434.4 107 430 107C425.6 107 422 103.4 422 99C422 94.6 425.6 91 430 91C430.72 91 431.4 91.08 432.04 91.28L450.28 73.08C450.08 72.44 450 71.72 450 71C450 66.6 453.6 63 458 63C462.4 63 466 66.6 466 71C466 71.72 465.92 72.44 465.72 73.08L475.92 83.28C476.56 83.08 477.28 83 478 83C478.72 83 479.44 83.08 480.08 83.28L494.28 69.04C494.08 68.4 494 67.72 494 67C494 62.6 497.6 59 502 59C506.4 59 510 62.6 510 67Z" fill="#0059FF"/>
</g>
<g clip-path="url(#clip2_7_88)">
<path d="M391.24 409.88C390.92 409.88 390.6 409.8 390.32 409.64C382.64 405.68 376 404 368.04 404C360.12 404 352.6 405.88 345.76 409.64C344.8 410.16 343.6 409.8 343.04 408.84C342.52 407.88 342.88 406.64 343.84 406.12C351.28 402.08 359.44 400 368.04 400C376.56 400 384 401.88 392.16 406.08C393.16 406.6 393.52 407.8 393 408.76C392.64 409.48 391.96 409.88 391.24 409.88ZM334 430.88C333.6 430.88 333.2 430.76 332.84 430.52C331.92 429.88 331.72 428.64 332.36 427.72C336.32 422.12 341.36 417.72 347.36 414.64C359.92 408.16 376 408.12 388.6 414.6C394.6 417.68 399.64 422.04 403.6 427.6C404.24 428.48 404.04 429.76 403.12 430.4C402.2 431.04 400.96 430.84 400.32 429.92C396.72 424.88 392.16 420.92 386.76 418.16C375.28 412.28 360.6 412.28 349.16 418.2C343.72 421 339.16 425 335.56 430.04C335.24 430.6 334.64 430.88 334 430.88ZM359 479.16C358.48 479.16 357.96 478.96 357.6 478.56C354.12 475.08 352.24 472.84 349.56 468C346.8 463.08 345.36 457.08 345.36 450.64C345.36 438.76 355.52 429.08 368 429.08C380.48 429.08 390.64 438.76 390.64 450.64C390.64 451.76 389.76 452.64 388.64 452.64C387.52 452.64 386.64 451.76 386.64 450.64C386.64 440.96 378.28 433.08 368 433.08C357.72 433.08 349.36 440.96 349.36 450.64C349.36 456.4 350.64 461.72 353.08 466.04C355.64 470.64 357.4 472.6 360.48 475.72C361.24 476.52 361.24 477.76 360.48 478.56C360.04 478.96 359.52 479.16 359 479.16ZM387.68 471.76C382.92 471.76 378.72 470.56 375.28 468.2C369.32 464.16 365.76 457.6 365.76 450.64C365.76 449.52 366.64 448.64 367.76 448.64C368.88 448.64 369.76 449.52 369.76 450.64C369.76 456.28 372.64 461.6 377.52 464.88C380.36 466.8 383.68 467.72 387.68 467.72C388.64 467.72 390.24 467.6 391.84 467.32C392.92 467.12 393.96 467.84 394.16 468.96C394.36 470.04 393.64 471.08 392.52 471.28C390.24 471.72 388.24 471.76 387.68 471.76ZM379.64 480C379.48 480 379.28 479.96 379.12 479.92C372.76 478.16 368.6 475.8 364.24 471.52C358.64 465.96 355.56 458.56 355.56 450.64C355.56 444.16 361.08 438.88 367.88 438.88C374.68 438.88 380.2 444.16 380.2 450.64C380.2 454.92 383.92 458.4 388.52 458.4C393.12 458.4 396.84 454.92 396.84 450.64C396.84 435.56 383.84 423.32 367.84 423.32C356.48 423.32 346.08 429.64 341.4 439.44C339.84 442.68 339.04 446.48 339.04 450.64C339.04 453.76 339.32 458.68 341.72 465.08C342.12 466.12 341.6 467.28 340.56 467.64C339.52 468.04 338.36 467.48 338 466.48C336.04 461.24 335.08 456.04 335.08 450.64C335.08 445.84 336 441.48 337.8 437.68C343.12 426.52 354.92 419.28 367.84 419.28C386.04 419.28 400.84 433.32 400.84 450.6C400.84 457.08 395.32 462.36 388.52 462.36C381.72 462.36 376.2 457.08 376.2 450.6C376.2 446.32 372.48 442.84 367.88 442.84C363.28 442.84 359.56 446.32 359.56 450.6C359.56 457.44 362.2 463.84 367.04 468.64C370.84 472.4 374.48 474.48 380.12 476.04C381.2 476.32 381.8 477.44 381.52 478.48C381.32 479.4 380.48 480 379.64 480Z" fill="#0059FF"/>
</g>
<path d="M22 253C18.1333 253 14.8333 251.633 12.1 248.9C9.36667 246.167 8 242.867 8 239C8 235.133 9.36667 231.833 12.1 229.1C14.8333 226.367 18.1333 225 22 225C23.2 225 24.3667 225.15 25.5 225.45C26.6333 225.75 27.7 226.167 28.7 226.7L44 211.4V200.4C41.0667 199.533 38.6667 197.883 36.8 195.45C34.9333 193.017 34 190.2 34 187C34 183.133 35.3667 179.833 38.1 177.1C40.8333 174.367 44.1333 173 48 173C51.8667 173 55.1667 174.367 57.9 177.1C60.6333 179.833 62 183.133 62 187C62 190.2 61.0667 193.017 59.2 195.45C57.3333 197.883 54.9333 199.533 52 200.4V211.4L67.4 226.7C68.4 226.167 69.45 225.75 70.55 225.45C71.65 225.15 72.8 225 74 225C77.8667 225 81.1667 226.367 83.9 229.1C86.6333 231.833 88 235.133 88 239C88 242.867 86.6333 246.167 83.9 248.9C81.1667 251.633 77.8667 253 74 253C70.1333 253 66.8333 251.633 64.1 248.9C61.3667 246.167 60 242.867 60 239C60 237.8 60.15 236.633 60.45 235.5C60.75 234.367 61.1667 233.3 61.7 232.3L48 218.6L34.3 232.3C34.8333 233.3 35.25 234.367 35.55 235.5C35.85 236.633 36 237.8 36 239C36 242.867 34.6333 246.167 31.9 248.9C29.1667 251.633 25.8667 253 22 253ZM74 245C75.6667 245 77.0833 244.417 78.25 243.25C79.4167 242.083 80 240.667 80 239C80 237.333 79.4167 235.917 78.25 234.75C77.0833 233.583 75.6667 233 74 233C72.3333 233 70.9167 233.583 69.75 234.75C68.5833 235.917 68 237.333 68 239C68 240.667 68.5833 242.083 69.75 243.25C70.9167 244.417 72.3333 245 74 245ZM48 193C49.6667 193 51.0833 192.417 52.25 191.25C53.4167 190.083 54 188.667 54 187C54 185.333 53.4167 183.917 52.25 182.75C51.0833 181.583 49.6667 181 48 181C46.3333 181 44.9167 181.583 43.75 182.75C42.5833 183.917 42 185.333 42 187C42 188.667 42.5833 190.083 43.75 191.25C44.9167 192.417 46.3333 193 48 193ZM22 245C23.6667 245 25.0833 244.417 26.25 243.25C27.4167 242.083 28 240.667 28 239C28 237.333 27.4167 235.917 26.25 234.75C25.0833 233.583 23.6667 233 22 233C20.3333 233 18.9167 233.583 17.75 234.75C16.5833 235.917 16 237.333 16 239C16 240.667 16.5833 242.083 17.75 243.25C18.9167 244.417 20.3333 245 22 245Z" fill="#0059FF"/>
<g clip-path="url(#clip3_7_88)">
<path d="M213 32H209V24C209 12.96 200.04 4 189 4C177.96 4 169 12.96 169 24V32H165C160.6 32 157 35.6 157 40V80C157 84.4 160.6 88 165 88H213C217.4 88 221 84.4 221 80V40C221 35.6 217.4 32 213 32ZM177 24C177 17.36 182.36 12 189 12C195.64 12 201 17.36 201 24V32H177V24ZM209 80H169C166.8 80 165 78.2 165 76V44C165 41.8 166.8 40 169 40H209C211.2 40 213 41.8 213 44V76C213 78.2 211.2 80 209 80ZM189 68C193.4 68 197 64.4 197 60C197 55.6 193.4 52 189 52C184.6 52 181 55.6 181 60C181 64.4 184.6 68 189 68Z" fill="#0059FF"/>
</g>
<g clip-path="url(#clip4_7_88)">
<path d="M130.68 442C129.28 442 128.2 440.76 128.4 439.36L132 414H118C114.48 414 116.68 411 116.76 410.88C121.8 401.96 129.36 388.76 139.36 371.16C139.76 370.44 140.56 370 141.36 370C142.76 370 143.84 371.24 143.64 372.64L140.04 398H154.08C155.68 398 156.56 398.76 155.68 400.64C142.52 423.6 134.88 437 132.68 440.84C132.28 441.56 131.52 442 130.68 442Z" fill="#0059FF"/>
</g>
<line x1="320.469" y1="283.826" x2="360.469" y2="391.826" stroke="black"/>
<defs>
<clipPath id="clip0_7_88">
<rect width="96" height="96" fill="white" transform="translate(466 213)"/>
</clipPath>
<clipPath id="clip1_7_88">
<rect width="96" height="96" fill="white" transform="translate(418 35)"/>
</clipPath>
<clipPath id="clip2_7_88">
<rect width="96" height="96" fill="white" transform="translate(320 392)"/>
</clipPath>
<clipPath id="clip3_7_88">
<rect width="96" height="96" fill="white" transform="translate(141)"/>
</clipPath>
<clipPath id="clip4_7_88">
<rect width="96" height="96" fill="white" transform="translate(88 358)"/>
</clipPath>
</defs>
</svg>
